<svg width="156" height="28" viewBox="0 0 156 28" fill="none" xmlns="http://www.w3.org/2000/svg">
<g id="Logo-dark">
<g id="Logo-D">
<path id="Vector" d="M74.7411 0.0112565C80.4181 0.0112565 85.0285 4.7014 85.121 10.5226V17.0499C85.121 22.148 81.6524 26.4105 77.0275 27.4797C77.2328 27.4318 77.438 27.3784 77.6374 27.3193C79.7091 24.7775 80.8304 21.6252 80.817 18.3807C80.817 18.1866 80.817 17.9896 80.817 17.7983V17.6239C80.8305 17.4701 80.8392 17.3125 80.843 17.1512V10.6998C80.843 10.5141 80.8431 10.3284 80.8199 10.1371C80.7968 9.9458 80.8373 9.72916 80.8373 9.52377C80.8373 5.14594 78.1173 1.42083 74.322 0.0422097L74.2064 0H68.7548H68.6797H68.7577H74.7411V0.0112565Z" fill="url(#paint0_linear_2785_914)"/>
<path id="Vector_2" d="M59.9522 9.86694C59.4553 9.97576 59.011 10.2453 58.6918 10.6317C58.3726 11.018 58.1974 11.4982 58.1947 11.994V20.4627C59.2072 21.8611 60.7016 22.8595 62.4063 23.2762L62.5074 23.3015H74.7373C77.9168 23.3015 80.5183 20.82 80.7814 17.6323C80.7814 17.8883 80.7987 18.1274 80.7987 18.3891C80.8121 21.6335 79.6908 24.7859 77.6191 27.3276C76.738 27.5897 75.8233 27.7299 74.902 27.744H58.1918V12.0671C58.1817 11.5687 58.3462 11.0817 58.6583 10.6864C58.9704 10.2911 59.4114 10.0111 59.9088 9.89227L59.9522 9.86694Z" fill="#82B0FF"/>
<path id="Vector_3" d="M74.1687 0.0114746C78.0247 1.35634 80.7996 5.11239 80.7996 9.53524C80.7996 9.74907 80.7996 9.94038 80.7822 10.1486C80.5221 6.98337 77.9668 4.52155 74.8393 4.45684H68.8125C68.234 4.42454 67.6896 4.17991 67.2891 3.77228C66.8886 3.36466 66.6618 2.82437 66.6545 2.26039C66.6471 1.69641 66.8598 1.1507 67.2496 0.73334C67.6393 0.315978 68.1772 0.058013 68.7547 0.0114746H74.1687Z" fill="#82B0FF"/>
<path id="Vector_4" d="M60.351 9.83032C60.9292 9.84572 61.4783 10.0801 61.8816 10.4837C62.2849 10.8873 62.5104 11.4281 62.5102 11.9911V23.293C60.7642 22.8958 59.2286 21.8886 58.1947 20.4626V12.0671C58.1846 11.7822 58.2325 11.4982 58.3356 11.2314C58.4387 10.9647 58.5949 10.7203 58.7952 10.5125C58.9956 10.3046 59.2362 10.1374 59.5032 10.0203C59.7702 9.90325 60.0583 9.83868 60.351 9.83032Z" fill="url(#paint1_linear_2785_914)"/>
<path id="Vector_5" fill-rule="evenodd" clip-rule="evenodd" d="M63.9851 1.51087C63.9898 1.31434 63.9142 1.12402 63.775 0.981631C63.6357 0.839238 63.4442 0.756381 63.2423 0.751221H58.4237C58.2218 0.756381 58.0303 0.839238 57.891 0.981631C57.7518 1.12402 57.6762 1.31434 57.6809 1.51087V6.44016C57.6762 6.63669 57.7518 6.827 57.891 6.96939C58.0303 7.11178 58.2218 7.19465 58.4237 7.19981H61.4241C62.6551 7.20106 63.8451 7.63041 64.7796 8.41044C65.714 9.19048 66.3313 10.2698 66.5201 11.4539V18.3807C66.5201 18.5106 66.5731 18.6351 66.6674 18.7269C66.7618 18.8187 66.8897 18.8703 67.0231 18.8703H76.2959C76.3618 18.8703 76.4271 18.8576 76.4879 18.833C76.5488 18.8083 76.6041 18.7722 76.6505 18.7267C76.697 18.6812 76.7338 18.6272 76.7587 18.5679C76.7837 18.5085 76.7963 18.4449 76.796 18.3807V9.37747C76.7963 9.31345 76.7837 9.24998 76.7587 9.19076C76.7337 9.13153 76.6969 9.07773 76.6504 9.03246C76.6039 8.98719 76.5486 8.95135 76.4877 8.92702C76.4269 8.90269 76.3617 8.89037 76.2959 8.89074H68.7805C67.4803 8.79496 66.2652 8.22457 65.3786 7.29381C64.4921 6.36306 63.9995 5.14065 63.9996 3.87141L63.9851 1.51087Z" fill="url(#paint2_linear_2785_914)"/>
</g>
<g id="Logo-text">
<path id="Vector_6" d="M96.8157 12.6397H99.6805V22.651H96.8157V21.3444C96.4457 21.8461 95.9483 22.2557 95.3674 22.5373C94.7865 22.8189 94.1398 22.9638 93.4842 22.9592C92.804 22.9699 92.1297 22.8394 91.511 22.5771C90.8923 22.3148 90.3448 21.9274 89.9086 21.4434C88.9838 20.3625 88.4805 19.0235 88.4805 17.6439C88.4805 16.2643 88.9838 14.9253 89.9086 13.8444C90.3375 13.3614 90.8778 12.9737 91.4898 12.7099C92.1017 12.4461 92.7697 12.3129 93.4445 12.3201C94.7645 12.3201 95.8923 12.8555 96.8279 13.9264L96.8157 12.6397ZM97.1208 17.6736C97.1404 16.9302 96.8408 16.2101 96.2879 15.6714C96.0374 15.4067 95.7279 15.1955 95.3808 15.0525C95.0337 14.9094 94.6572 14.8379 94.2774 14.8427C93.897 14.8378 93.5197 14.9082 93.1709 15.0491C92.8221 15.19 92.5098 15.3983 92.2547 15.66C91.7217 16.201 91.4263 16.9071 91.4263 17.6397C91.4263 18.3723 91.7217 19.0784 92.2547 19.6193C92.5117 19.8758 92.8231 20.0805 93.1693 20.2204C93.5155 20.3604 93.8891 20.4326 94.2667 20.4326C94.6444 20.4326 95.018 20.3604 95.3642 20.2204C95.7104 20.0805 96.0218 19.8758 96.2788 19.6193C96.8254 19.0991 97.1281 18.3998 97.1208 17.6736Z" fill="white"/>
<path id="Vector_7" d="M105.171 15.0699V22.6802H102.24V15.0699H101.08V12.6428H102.24V9.24023H105.171V12.6428H107.24V15.0699H105.171Z" fill="white"/>
<path id="Vector_8" d="M116.344 12.6397H119.281V22.651H116.344V21.3444C115.965 21.8455 115.455 22.2548 114.859 22.5363C114.264 22.8178 113.601 22.963 112.93 22.9592C112.232 22.9699 111.541 22.8394 110.907 22.5771C110.273 22.3148 109.712 21.9274 109.265 21.4434C108.317 20.3625 107.801 19.0235 107.801 17.6439C107.801 16.2643 108.317 14.9253 109.265 13.8444C109.704 13.3613 110.258 12.9735 110.885 12.7096C111.512 12.4458 112.197 12.3127 112.889 12.3201C114.244 12.3201 115.4 12.8556 116.357 13.9264L116.344 12.6397ZM116.657 17.6736C116.677 16.9302 116.37 16.2101 115.803 15.6714C115.546 15.4063 115.229 15.195 114.872 15.0519C114.516 14.9088 114.129 14.8375 113.74 14.8427C113.35 14.838 112.964 14.9085 112.607 15.0494C112.25 15.1904 111.93 15.3985 111.669 15.66C111.123 16.201 110.82 16.9071 110.82 17.6397C110.82 18.3723 111.123 19.0784 111.669 19.6193C111.933 19.8754 112.252 20.0796 112.606 20.2193C112.961 20.359 113.343 20.4311 113.73 20.4311C114.117 20.4311 114.499 20.359 114.854 20.2193C115.209 20.0796 115.528 19.8754 115.791 19.6193C116.353 19.1001 116.665 18.4003 116.657 17.6736Z" fill="white"/>
<path id="Vector_9" d="M125.119 7.28003V20.0747H129.92V22.68H122.08V7.28003H125.119Z" fill="white"/>
<path id="Vector_10" d="M139.375 12.6397H142.24V22.6511H139.375V21.3445C139.005 21.8462 138.507 22.2558 137.926 22.5374C137.345 22.819 136.699 22.9639 136.043 22.9594C135.363 22.9689 134.689 22.8377 134.07 22.5755C133.452 22.3133 132.904 21.9266 132.467 21.4435C131.543 20.3622 131.04 19.0233 131.04 17.644C131.04 16.2646 131.543 14.9258 132.467 13.8444C132.895 13.3615 133.435 12.9738 134.046 12.7099C134.658 12.4461 135.326 12.3129 136 12.3201C137.32 12.3201 138.448 12.8555 139.384 13.9265L139.375 12.6397ZM139.68 17.6737C139.7 16.9303 139.4 16.2101 138.847 15.6714C138.597 15.4064 138.287 15.1951 137.94 15.052C137.593 14.9089 137.216 14.8375 136.836 14.8427C136.456 14.8378 136.078 14.9082 135.73 15.0491C135.381 15.1901 135.068 15.3983 134.813 15.6601C134.28 16.201 133.985 16.9071 133.985 17.6397C133.985 18.3723 134.28 19.0784 134.813 19.6194C135.07 19.8759 135.382 20.0806 135.728 20.2205C136.074 20.3605 136.448 20.4327 136.825 20.4327C137.203 20.4327 137.577 20.3605 137.923 20.2205C138.269 20.0806 138.581 19.8759 138.838 19.6194C139.385 19.0992 139.687 18.3998 139.68 17.6737Z" fill="white"/>
<path id="Vector_11" d="M147.62 5.6001V14.0597C148.573 13.0045 149.705 12.477 151.015 12.477C151.687 12.4695 152.351 12.6007 152.96 12.8607C153.568 13.1207 154.105 13.5029 154.53 13.9789C155.456 15.0424 155.96 16.3622 155.96 17.7224C155.96 19.0826 155.456 20.4025 154.53 21.466C154.093 21.9431 153.545 22.3248 152.927 22.5832C152.308 22.8416 151.634 22.9701 150.955 22.9595C150.297 22.965 149.648 22.8228 149.065 22.5454C148.481 22.268 147.981 21.8639 147.608 21.3685V22.6558H144.76V5.6001H147.62ZM153.008 17.7517C153.028 17.0193 152.729 16.3097 152.178 15.7789C151.926 15.5171 151.615 15.3086 151.267 15.1676C150.919 15.0266 150.541 14.9566 150.16 14.9625C149.78 14.9594 149.403 15.0306 149.056 15.1714C148.708 15.3122 148.397 15.5193 148.143 15.7789C147.61 16.311 147.314 17.007 147.314 17.7294C147.314 18.4518 147.61 19.1478 148.143 19.6799C148.399 19.938 148.712 20.1432 149.062 20.2821C149.411 20.4209 149.789 20.4901 150.17 20.4852C150.546 20.4889 150.919 20.419 151.264 20.2801C151.609 20.1412 151.917 19.9366 152.169 19.6799C152.44 19.4248 152.654 19.1232 152.798 18.7923C152.942 18.4615 153.013 18.1078 153.008 17.7517Z" fill="white"/>
<path id="Vector_12" d="M0.00131081 14.8759C-0.0186342 13.8426 0.189211 12.8162 0.612392 11.8584C1.03557 10.9006 1.66537 10.0311 2.46397 9.30198C3.23053 8.56099 4.15636 7.97392 5.18295 7.5779C6.20954 7.18188 7.31455 6.98552 8.42811 7.00122C9.5405 6.98247 10.6447 7.17948 11.6683 7.57935C12.6919 7.97922 13.6118 8.57295 14.3678 9.3216C15.934 10.862 16.8034 12.8907 16.8 14.9969C16.7966 17.1032 15.9206 19.1295 14.3495 20.6656C13.5742 21.4118 12.6375 22.0012 11.5994 22.3959C10.5613 22.7907 9.44467 22.9821 8.32118 22.958C6.2729 22.9818 4.29377 22.279 2.797 20.9963C0.935236 19.4457 0.00334775 17.4055 0.00131081 14.8759ZM3.15753 14.9151C3.11952 16.3092 3.66636 17.6634 4.68524 18.6984C5.14726 19.1841 5.71736 19.5735 6.35717 19.8404C6.99698 20.1072 7.69166 20.2452 8.3945 20.2452C9.09734 20.2452 9.79203 20.1072 10.4318 19.8404C11.0716 19.5735 11.6417 19.1841 12.1038 18.6984C13.118 17.6798 13.6652 16.3419 13.6315 14.9628C13.6702 13.5888 13.122 12.2553 12.1038 11.2468C11.6429 10.7627 11.0744 10.3747 10.4364 10.1088C9.79851 9.84294 9.10592 9.70537 8.40521 9.70537C7.70449 9.70537 7.01189 9.84294 6.37395 10.1088C5.73601 10.3747 5.1675 10.7627 4.70663 11.2468C3.68601 12.2361 3.12972 13.5534 3.15753 14.9151Z" fill="white"/>
<path id="Vector_13" d="M21.6115 27.9998H18.7598V12.6264H21.6115V13.9382C21.9837 13.436 22.4822 13.0261 23.0637 12.7441C23.6452 12.4621 24.292 12.3166 24.9478 12.3204C25.6297 12.3102 26.3054 12.4421 26.9254 12.7063C27.5454 12.9706 28.0939 13.3605 28.5308 13.8475C29.456 14.9276 29.9598 16.2675 29.9598 17.6484C29.9598 19.0292 29.456 20.3692 28.5308 21.4493C28.1055 21.9345 27.5678 22.3241 26.958 22.589C26.3481 22.8539 25.6818 22.9873 25.0087 22.9792C23.6823 22.9792 22.55 22.44 21.6115 21.3614V27.9998ZM27.0196 17.6696C27.0391 16.9249 26.74 16.2034 26.1878 15.6637C25.9359 15.3975 25.6247 15.1854 25.276 15.0421C24.9272 14.8987 24.5491 14.8276 24.1678 14.8335C23.7869 14.8302 23.4097 14.9025 23.0614 15.0457C22.713 15.1889 22.4015 15.3996 22.1478 15.6637C21.6123 16.2041 21.315 16.9121 21.315 17.647C21.315 18.3819 21.6123 19.0899 22.1478 19.6303C22.4045 19.8887 22.716 20.0948 23.0626 20.2359C23.4092 20.3769 23.7834 20.4497 24.1617 20.4497C24.54 20.4497 24.9142 20.3769 25.2608 20.2359C25.6074 20.0948 25.9189 19.8887 26.1756 19.6303C26.4484 19.3714 26.6633 19.0648 26.8082 18.7284C26.953 18.3919 27.0249 18.0321 27.0196 17.6696Z" fill="white"/>
<path id="Vector_14" d="M41.9963 18.1037H34.3084C34.2672 18.8114 34.5065 19.5088 34.9819 20.0665C35.2123 20.3046 35.4974 20.4925 35.8165 20.6168C36.1356 20.741 36.4808 20.7984 36.827 20.7849C37.8397 20.7849 38.6485 20.3399 39.2533 19.4499L41.9163 19.8685C41.0369 21.9313 39.3578 22.9617 36.8793 22.9598C35.2064 22.9598 33.8687 22.4809 32.8662 21.5231C31.8637 20.5652 31.3614 19.2793 31.3594 17.6653C31.3594 16.0362 31.8442 14.7399 32.8139 13.7764C33.7836 12.8129 35.0906 12.3274 36.7347 12.3198C38.3748 12.3198 39.6582 12.8016 40.5848 13.7651C41.5115 14.7286 41.983 16.0484 41.9994 17.7247L41.9963 18.1037ZM39.2502 16.319C38.9304 14.9897 38.1104 14.3298 36.7901 14.3392C36.2079 14.3195 35.6394 14.5046 35.2002 14.8568C34.7546 15.2491 34.4691 15.7703 34.3915 16.3332L39.2502 16.319Z" fill="white"/>
<path id="Vector_15" d="M43.96 12.6426H46.727V13.8902C47.0683 13.4032 47.5303 13.005 48.0715 12.7314C48.6127 12.4577 49.2163 12.3171 49.8281 12.3222C50.3138 12.3048 50.7982 12.3826 51.2516 12.5508C51.705 12.719 52.1178 12.9741 52.465 13.3004C52.8318 13.6286 53.1029 14.043 53.2514 14.5026C53.413 15.0928 53.4896 15.7014 53.479 16.3116V22.6798H50.7149V17.1197C50.7205 16.7503 50.6849 16.3816 50.6085 16.0195C50.5579 15.7504 50.447 15.495 50.2833 15.271C50.1337 15.0783 49.928 14.9323 49.6921 14.8514C49.4155 14.7516 49.1213 14.7044 48.8259 14.7124C47.4266 14.7124 46.728 15.6349 46.7299 17.4797V22.6798H43.9629L43.96 12.6426Z" fill="white"/>
</g>
</g>
<defs>
<linearGradient id="paint0_linear_2785_914" x1="69.3127" y1="5.01369" x2="87.9571" y2="24.8093" gradientUnits="userSpaceOnUse">
<stop stop-color="#4187FF"/>
<stop offset="0.0001" stop-color="#4187FF"/>
<stop offset="0.34" stop-color="#1A67FF"/>
<stop offset="1" stop-color="#4D49D1"/>
</linearGradient>
<linearGradient id="paint1_linear_2785_914" x1="54.6567" y1="13.8086" x2="64.7239" y2="18.0801" gradientUnits="userSpaceOnUse">
<stop stop-color="#7AB4FF"/>
<stop offset="0.54" stop-color="#1A67FF"/>
<stop offset="1" stop-color="#4D49D1"/>
</linearGradient>
<linearGradient id="paint2_linear_2785_914" x1="52.608" y1="-6.89874" x2="78.4541" y2="22.8697" gradientUnits="userSpaceOnUse">
<stop stop-color="#7AB4FF"/>
<stop offset="0.35" stop-color="#1A67FF"/>
<stop offset="1" stop-color="#5B41F8"/>
</linearGradient>
</defs>
</svg>
